<svg width="22" height="22" viewBox="0 0 22 22" fill="none" xmlns="http://www.w3.org/2000/svg">
<path d="M21.9419 7.89802C21.8727 7.6944 21.7454 7.51548 21.5758 7.38335C21.4061 7.25122 21.2014 7.17167 20.9871 7.15452L14.7159 6.65628L12.0022 0.649978C11.9158 0.456527 11.7752 0.292219 11.5974 0.176884C11.4197 0.0615492 11.2124 0.000116451 11.0004 1.65394e-07C10.7885 -0.000116121 10.5811 0.061089 10.4033 0.176229C10.2254 0.291369 10.0846 0.455523 9.99799 0.648878L7.28427 6.65628L1.01313 7.15452C0.802434 7.17121 0.601004 7.24824 0.432942 7.37639C0.26488 7.50455 0.137302 7.6784 0.0654717 7.87715C-0.00635845 8.07591 -0.0193997 8.29114 0.0279085 8.49711C0.0752166 8.70308 0.180871 8.89106 0.332231 9.03857L4.96656 13.5557L3.32755 20.6519C3.27778 20.8667 3.29373 21.0915 3.37333 21.2971C3.45293 21.5028 3.5925 21.6797 3.77393 21.8051C3.95537 21.9304 4.17028 21.9983 4.3908 22C4.61131 22.0016 4.82724 21.937 5.01056 21.8145L11.0001 17.822L16.9896 21.8145C17.177 21.9389 17.398 22.0029 17.6228 21.998C17.8477 21.993 18.0656 21.9194 18.2474 21.7869C18.4291 21.6544 18.5659 21.4695 18.6394 21.2569C18.7129 21.0444 18.7195 20.8144 18.6583 20.598L16.6464 13.559L21.6361 9.06936C21.9628 8.7746 22.0827 8.31486 21.9419 7.89802Z" fill="#F59E0B"/>
</svg>
