<svg width="20" height="22" viewBox="0 0 20 22" fill="none" xmlns="http://www.w3.org/2000/svg">
<path fill-rule="evenodd" clip-rule="evenodd" d="M16.3323 0.956787C16.8813 0.956787 17.3272 1.40489 17.3272 1.95666C17.3272 2.50843 16.8813 2.95653 16.3323 2.95653C15.7834 2.95653 15.3375 2.50843 15.3375 1.95666C15.3392 1.40489 15.7834 0.956787 16.3323 0.956787ZM16.5985 9.66471C17.4569 10.9522 18.5432 11.3468 19.9539 10.4756C20.0005 10.9605 20.0121 11.4554 19.9872 11.9571C19.7094 17.5015 15.0131 21.7702 9.49681 21.491C3.98213 21.2101 -0.264925 16.4899 0.0128885 10.9472C0.289038 5.40271 5.14828 1.08721 10.663 1.36643C10.1739 2.9047 10.5881 4.27075 11.8324 4.73557C10.7045 8.37724 13.2232 10.7599 16.5985 9.66471ZM4.99523 8.94741C5.82202 8.94741 6.49077 9.62123 6.49077 10.4506C6.49077 11.2799 5.82035 11.9537 4.99523 11.9537C4.16845 11.9537 3.4997 11.2799 3.4997 10.4506C3.4997 9.62123 4.17011 8.94741 4.99523 8.94741ZM9.70641 10.8635C10.1822 10.8635 10.5681 11.2515 10.5681 11.7297C10.5681 12.2079 10.1822 12.5958 9.70641 12.5958C9.23064 12.5958 8.84469 12.2079 8.84469 11.7297C8.84303 11.2515 9.22897 10.8635 9.70641 10.8635ZM5.96675 14.4317C6.54733 14.4317 7.01811 14.9048 7.01811 15.4884C7.01811 16.0719 6.54733 16.5451 5.96675 16.5451C5.38617 16.5451 4.91538 16.0719 4.91538 15.4884C4.91538 14.9032 5.38617 14.4317 5.96675 14.4317ZM8.23251 6.34573C8.68832 6.34573 9.05596 6.71692 9.05596 7.17338C9.05596 7.63152 8.68666 8.00104 8.23251 8.00104C7.77669 8.00104 7.40905 7.62985 7.40905 7.17338C7.40905 6.71692 7.77836 6.34573 8.23251 6.34573ZM12.7075 14.8012C13.471 14.8012 14.0882 15.4232 14.0882 16.189C14.0882 16.9564 13.4694 17.5767 12.7075 17.5767C11.9439 17.5767 11.3267 16.9547 11.3267 16.189C11.3267 15.4232 11.9456 14.8012 12.7075 14.8012ZM15.6154 4.81917C16.1277 4.81917 16.5436 5.23718 16.5436 5.75216C16.5436 6.26715 16.1277 6.68515 15.6154 6.68515C15.103 6.68515 14.6871 6.26715 14.6871 5.75216C14.6871 5.23718 15.103 4.81917 15.6154 4.81917Z" fill="#0B9567"/>
</svg>
