<svg width="18" height="18" viewBox="0 0 18 18" fill="none" xmlns="http://www.w3.org/2000/svg">
<path d="M4 18H1C0.45 18 0 17.55 0 17V5.69C0 5.27 0.25 4.9 0.64 4.75L11.64 0.519999C11.7921 0.461321 11.9561 0.440698 12.118 0.459925C12.2798 0.479151 12.4345 0.537645 12.5686 0.630315C12.7027 0.722984 12.8121 0.84702 12.8873 0.991625C12.9624 1.13623 13.0012 1.29702 13 1.46V7H5C4.45 7 4 7.45 4 8V18ZM14 9H7C6.45 9 6 9.45 6 10V17C6 17.55 6.45 18 7 18H11V14C11 13.45 11.45 13 12 13C12.55 13 13 13.45 13 14V18H17C17.55 18 18 17.55 18 17V9C18 7.9 17.1 7 16 7C14.9 7 14 7.9 14 9Z" fill="#0B9567"/>
</svg>
