<svg width="14" height="8" viewBox="0 0 14 8" fill="none" xmlns="http://www.w3.org/2000/svg">
<path d="M13.9982 6.86474C13.9987 7.12953 13.9175 7.38614 13.7687 7.59003C13.6849 7.70478 13.5821 7.79964 13.466 7.86917C13.3499 7.93869 13.2229 7.98153 13.0922 7.99521C12.9615 8.0089 12.8297 7.99317 12.7044 7.94892C12.5791 7.90467 12.4626 7.83278 12.3618 7.73735L7.01368 2.66033L1.65557 7.55603C1.5535 7.65017 1.43607 7.72047 1.31001 7.76289C1.18395 7.80531 1.05175 7.81901 0.921013 7.80321C0.790274 7.78742 0.663573 7.74243 0.548193 7.67084C0.432812 7.59925 0.331026 7.50246 0.248686 7.38604C0.157851 7.26879 0.0893352 7.13147 0.0474391 6.98272C0.00554292 6.83396 -0.00882892 6.67698 0.0052248 6.52162C0.0192785 6.36625 0.0614547 6.21587 0.129107 6.0799C0.196758 5.94392 0.288425 5.8253 0.398354 5.73147L6.38508 0.257804C6.56361 0.0911209 6.78756 -2.96694e-07 7.01867 -3.06796e-07C7.24979 -3.16898e-07 7.47373 0.0911209 7.65227 0.257804L13.639 5.92413C13.7597 6.03782 13.8552 6.18223 13.9176 6.34566C13.98 6.50909 14.0076 6.68692 13.9982 6.86474Z" fill="#888B97"/>
</svg>
