<svg width="8" height="14" viewBox="0 0 8 14" fill="none" xmlns="http://www.w3.org/2000/svg">
<path d="M1.13526 0.00180435C0.87047 0.00134945 0.613858 0.0825443 0.40997 0.231296C0.295217 0.315059 0.200361 0.417933 0.130833 0.534022C0.0613047 0.650112 0.0184714 0.777137 0.00478626 0.907824C-0.0088989 1.03851 0.00683311 1.17029 0.0510809 1.29562C0.0953286 1.42094 0.167222 1.53735 0.262645 1.63818L5.33967 6.98632L0.443969 12.3444C0.349833 12.4465 0.279534 12.5639 0.237114 12.69C0.194694 12.8161 0.180989 12.9482 0.196785 13.079C0.212582 13.2097 0.257569 13.3364 0.329162 13.4518C0.400755 13.5672 0.497541 13.669 0.613958 13.7513C0.731212 13.8421 0.868525 13.9107 1.01728 13.9526C1.16604 13.9945 1.32302 14.0088 1.47838 13.9948C1.63375 13.9807 1.78413 13.9385 1.9201 13.8709C2.05608 13.8032 2.1747 13.7116 2.26853 13.6016L7.7422 7.61492C7.90888 7.43638 8 7.21244 8 6.98133C8 6.75021 7.90888 6.52627 7.7422 6.34773L2.07587 0.361009C1.96218 0.240259 1.81777 0.144807 1.65434 0.0823965C1.49091 0.0199862 1.31308 -0.00762463 1.13526 0.00180435Z" fill="white"/>
</svg>
