<svg width="16" height="20" viewBox="0 0 16 20" fill="none" xmlns="http://www.w3.org/2000/svg">
<path d="M4.38436 0.479201C4.90946 0.320881 5.47295 0.347183 5.98101 0.553729C6.48908 0.760275 6.91108 1.1346 7.17676 1.6144L7.26676 1.7932L8.05996 3.5584C8.30105 4.09418 8.37931 4.68902 8.28501 5.26892C8.1907 5.84883 7.928 6.38822 7.52956 6.82L7.37116 6.9784L6.11836 8.146C5.89276 8.3596 6.06196 9.1864 6.87916 10.6C7.61236 11.872 8.21116 12.466 8.50396 12.4984H8.55556L8.61916 12.4864L11.0792 11.734C11.4098 11.6326 11.7626 11.6286 12.0954 11.7224C12.4283 11.8163 12.727 12.004 12.956 12.2632L13.0664 12.4012L14.6936 14.6572C15.0129 15.0993 15.1721 15.6369 15.1451 16.1815C15.118 16.7262 14.9063 17.2454 14.5448 17.6536L14.3984 17.8048L13.7468 18.4216C13.1627 18.9747 12.4321 19.3485 11.6418 19.4984C10.8516 19.6484 10.0348 19.5683 9.28876 19.2676C6.96676 18.3316 4.85716 16.1932 2.94076 12.874C1.02076 9.5464 0.222765 6.646 0.579165 4.162C0.687118 3.41098 0.996497 2.70324 1.47443 2.11395C1.95237 1.52467 2.58101 1.07586 3.29356 0.815201L3.52516 0.738401L4.38436 0.479201Z" fill="white"/>
</svg>
