<svg width="10" height="6" viewBox="0 0 10 6" fill="none" xmlns="http://www.w3.org/2000/svg">
<path d="M9.66544 0.75684C9.66575 0.580314 9.61162 0.409239 9.51245 0.273314C9.45661 0.196812 9.38803 0.133574 9.31063 0.0872222C9.23324 0.0408702 9.14856 0.0123147 9.06143 0.00319122C8.97431 -0.00593222 8.88645 0.00455578 8.8029 0.0340543C8.71935 0.0635528 8.64175 0.111482 8.57453 0.175097L5.0091 3.55978L1.43702 0.295979C1.36898 0.233222 1.29069 0.186356 1.20665 0.158076C1.12261 0.129796 1.03448 0.120659 0.947321 0.13119C0.860162 0.141721 0.775695 0.171713 0.698775 0.219441C0.621854 0.26717 0.553997 0.331694 0.499104 0.409305C0.438547 0.487475 0.39287 0.579017 0.364939 0.678187C0.337008 0.777357 0.327427 0.882014 0.336796 0.985589C0.346165 1.08916 0.374283 1.18942 0.419384 1.28007C0.464485 1.37072 0.525596 1.4498 0.598882 1.51235L4.59003 5.16146C4.70906 5.27259 4.85835 5.33333 5.01243 5.33333C5.1665 5.33333 5.3158 5.27259 5.43483 5.16146L9.42597 1.38391C9.50647 1.30812 9.57011 1.21185 9.61172 1.10289C9.65332 0.993942 9.67173 0.875384 9.66544 0.75684Z" fill="white"/>
</svg>
