<svg width="8" height="14" viewBox="0 0 8 14" fill="none" xmlns="http://www.w3.org/2000/svg">
<path d="M6.86474 0.00180435C7.12953 0.00134945 7.38614 0.0825443 7.59003 0.231296C7.70478 0.315059 7.79964 0.417933 7.86917 0.534022C7.9387 0.650112 7.98153 0.777137 7.99521 0.907824C8.0089 1.03851 7.99317 1.17029 7.94892 1.29562C7.90467 1.42094 7.83278 1.53735 7.73735 1.63818L2.66033 6.98632L7.55603 12.3444C7.65017 12.4465 7.72047 12.5639 7.76289 12.69C7.80531 12.8161 7.81901 12.9482 7.80321 13.079C7.78742 13.2097 7.74243 13.3364 7.67084 13.4518C7.59925 13.5672 7.50246 13.669 7.38604 13.7513C7.26879 13.8421 7.13147 13.9107 6.98272 13.9526C6.83396 13.9945 6.67698 14.0088 6.52162 13.9948C6.36625 13.9807 6.21587 13.9385 6.0799 13.8709C5.94392 13.8032 5.8253 13.7116 5.73147 13.6016L0.257804 7.61492C0.0911212 7.43638 0 7.21244 0 6.98133C0 6.75021 0.0911212 6.52627 0.257804 6.34773L5.92413 0.361009C6.03782 0.240259 6.18223 0.144807 6.34566 0.0823965C6.50909 0.0199862 6.68692 -0.00762463 6.86474 0.00180435Z" fill="#10B981"/>
</svg>
