<svg width="18" height="19" viewBox="0 0 18 19" fill="none" xmlns="http://www.w3.org/2000/svg">
<path d="M18 8.83189V17.5C17.9999 17.7719 17.9262 18.0386 17.7868 18.272C17.6475 18.5054 17.4476 18.6968 17.2084 18.8259C16.9917 18.9432 16.7485 19.0031 16.5021 18.9999H11.9968C11.7978 18.9999 11.6071 18.9209 11.4664 18.7803C11.3258 18.6396 11.2468 18.4488 11.2468 18.2499V13.7493C11.2468 13.5504 11.1677 13.3596 11.0271 13.2189C10.8864 13.0783 10.6957 12.9993 10.4968 12.9993H7.49676C7.29784 12.9993 7.10708 13.0783 6.96643 13.2189C6.82577 13.3596 6.74676 13.5504 6.74676 13.7493V18.2499C6.74676 18.4488 6.66774 18.6396 6.52709 18.7803C6.38644 18.9209 6.19567 18.9999 5.99676 18.9999H1.50023C1.28758 19.0005 1.07726 18.9556 0.883385 18.8682C0.689506 18.7808 0.516538 18.653 0.376071 18.4934C0.12949 18.2082 -0.004257 17.8427 3.93466e-05 17.4657V8.8318C0.000202782 8.62281 0.0439502 8.41615 0.128487 8.22503C0.213025 8.0339 0.336494 7.86251 0.491008 7.7218L7.99035 0.903078C8.26582 0.650753 8.62582 0.510777 8.99939 0.510742C9.37296 0.510707 9.73299 0.650617 10.0085 0.90289L17.5092 7.72189C17.6636 7.86263 17.7871 8.03403 17.8716 8.22515C17.9561 8.41627 17.9999 8.62292 18 8.83189Z" fill="#10B981"/>
</svg>
